{"title":"Sunshine Daydream [Untouched]","uid":9715186,"size":19663072868,"categoryP":"video","categoryS":"music_videos","magnet":"?xt=urn:btih:0843ba305a379f6aa0f0d36cb970af447a1828b5&amp;dn=Sunshine+Daydream+%5BUntouched%5D&amp;tr=udp%3A%2F%2Ftracker.openbittorrent.com%3A80&amp;tr=udp%3A%2F%2Fopen.demonii.com%3A1337&amp;tr=udp%3A%2F%2Ftracker.coppersurfer.tk%3A6969&amp;tr=udp%3A%2F%2Fexodus.desync.com%3A6969","seeders":1,"leechers":0,"uploader":"AJcrash","files":7,"time":1394149831,"description":"Sunshine Daydream (August 27, 1972, Old Renaissance Faire Grounds, Veneta, OR)\n\nStraight from the Blu-ray disc, I simply named the appropriate .m2ts file to reflect the title of the Blu-ray. Basically the same as the other SSDD I put up, except that for whatever reason when I converted the other to .mkv approximately 3GB was stripped away. So for those diehards that want it untouched, here ya go.\n\n\n\nMedia info:\n\nFormat                                   : BDAV\nFormat/Info                              : Blu-ray Video\nFile size                                : 18.3 GiB\nDuration                                 : 1h 42mn\nOverall bit rate mode                    : Variable\nOverall bit rate                         : 25.6 Mbps\nMaximum Overall bit rate                 : 48.0 Mbps\n\nVideo\nID                                       : 4113 (0x1011)\nMenu ID                                  : 1 (0x1)\nFormat                                   : AVC\nFormat/Info                              : Advanced Video Codec\nFormat profile                           : &lt;a class=&quot;__cf_email__&quot; href=&quot;/cdn-cgi/l/email-protection&quot; data-cfemail=&quot;eba3828c83aba7dfc5da&quot;&gt;[email&amp;#160;protected]&lt;/a&gt;&lt;script cf-hash='f9e31' type=&quot;text/javascript&quot;&gt;\n/* &lt;![CDATA[ */!function(){try{var t=&quot;currentScript&quot;in document?document.currentScript:function(){for(var t=document.getElementsByTagName(&quot;script&quot;),e=t.length;e--;)if(t[e].getAttribute(&quot;cf-hash&quot;))return t[e]}();if(t&amp;&amp;t.previousSibling){var e,r,n,i,c=t.previousSibling,a=c.getAttribute(&quot;data-cfemail&quot;);if(a){for(e=&quot;&quot;,r=parseInt(a.substr(0,2),16),n=2;a.length-n;n+=2)i=parseInt(a.substr(n,2),16)^r,e+=String.fromCharCode(i);e=document.createTextNode(e),c.parentNode.replaceChild(e,c)}}}catch(u){}}();/* ]]&gt; */&lt;/script&gt;\nFormat settings, CABAC                   : Yes\nFormat settings, ReFrames                : 4 frames\nFormat settings, GOP                     : M=3, N=24\nCodec ID                                 : 27\nDuration                                 : 1h 42mn\nBit rate mode                            : Variable\nBit rate                                 : 23.7 Mbps\nMaximum bit rate                         : 30.0 Mbps\nWidth                                    : 1 920 pixels\nHeight                                   : 1 080 pixels\nDisplay aspect ratio                     : 16:9\nFrame rate                               : 23.976 fps\nStandard                                 : NTSC\nColor space                              : YUV\nChroma subsampling                       : 4:2:0\nBit depth                                : 8 bits\nScan type                                : Progressive\nBits/(Pixel*Frame)                       : 0.476\nStream size                              : 16.9 GiB (92%)\nColor primaries                          : BT.709\nTransfer characteristics                 : BT.709\nMatrix coefficients                      : BT.709\n\nAudio #1\nID                                       : 4352 (0x1100)\nMenu ID                                  : 1 (0x1)\nFormat                                   : TrueHD / AC-3\nMode extension                           : CM (complete main)\nFormat settings, Endianness              : Big\nMuxing mode                              : Stream extension\nCodec ID                                 : 131\nDuration                                 : 1h 42mn\nBit rate mode                            : Variable / Constant\nBit rate                                 : 640 Kbps\nMaximum bit rate                         : 4 974 Kbps\nChannel(s)                               : 6 channels\nChannel positions                        : Front: L C R, Side: L R, LFE\nSampling rate                            : 96.0 KHz / 48.0 KHz\nBit depth                                : 16 bits\nStream size                              : 469 MiB (3%)\n\nAudio #2\nID                                       : 4353 (0x1101)\nMenu ID                                  : 1 (0x1)\nFormat                                   : TrueHD / AC-3\nMode extension                           : CM (complete main)\nFormat settings, Endianness              : Big\nMuxing mode                              : Stream extension\nCodec ID                                 : 131\nDuration                                 : 1h 42mn\nBit rate mode                            : Variable / Constant\nBit rate                                 : 256 Kbps\nMaximum bit rate                         : 1 974 Kbps\nChannel(s)                               : 2 channels\nChannel positions                        : Front: C / Front: L R\nSampling rate                            : 96.0 KHz / 48.0 KHz\nBit depth                                : 16 bits\nStream size                              : 188 MiB (1%) ","torrent":{"xt":"urn:btih:0843ba305a379f6aa0f0d36cb970af447a1828b5","amp;dn":"Sunshine+Daydream+%5BUntouched%5D","amp;tr":["udp%3A%2F%2Ftracker.openbittorrent.com%3A80","udp%3A%2F%2Fopen.demonii.com%3A1337","udp%3A%2F%2Ftracker.coppersurfer.tk%3A6969","udp%3A%2F%2Fexodus.desync.com%3A6969"],"infoHash":"0843ba305a379f6aa0f0d36cb970af447a1828b5","infoHashBuffer":{"type":"Buffer","data":[8,67,186,48,90,55,159,106,160,240,211,108,185,112,175,68,122,24,40,181]},"announce":[],"urlList":[]}}